<?xml version="1.0" encoding="UTF-8" standalone="no"?>
<!-- Created with Inkscape (http://www.inkscape.org/) -->

<svg
   xmlns:dc="http://purl.org/dc/elements/1.1/"
   xmlns:cc="http://creativecommons.org/ns#"
   xmlns:rdf="http://www.w3.org/1999/02/22-rdf-syntax-ns#"
   xmlns:svg="http://www.w3.org/2000/svg"
   xmlns="http://www.w3.org/2000/svg"
   xmlns:sodipodi="http://sodipodi.sourceforge.net/DTD/sodipodi-0.dtd"
   xmlns:inkscape="http://www.inkscape.org/namespaces/inkscape"
   id="svg2876"
   version="1.1"
   inkscape:version="0.48.4 r9939"
   width="1024"
   height="768"
   sodipodi:docname="totenkitten.svg">
  <metadata
     id="metadata2882">
    <rdf:RDF>
      <cc:Work
         rdf:about="">
        <dc:format>image/svg+xml</dc:format>
        <dc:type
           rdf:resource="http://purl.org/dc/dcmitype/StillImage" />
        <dc:title></dc:title>
      </cc:Work>
    </rdf:RDF>
  </metadata>
  <defs
     id="defs2880">
    <inkscape:perspective
       sodipodi:type="inkscape:persp3d"
       inkscape:vp_x="0 : 0.5 : 1"
       inkscape:vp_y="0 : 1000 : 0"
       inkscape:vp_z="1 : 0.5 : 1"
       inkscape:persp3d-origin="0.5 : 0.33333333 : 1"
       id="perspective2884" />
    <inkscape:perspective
       id="perspective2940"
       inkscape:persp3d-origin="0.5 : 0.33333333 : 1"
       inkscape:vp_z="1 : 0.5 : 1"
       inkscape:vp_y="0 : 1000 : 0"
       inkscape:vp_x="0 : 0.5 : 1"
       sodipodi:type="inkscape:persp3d" />
  </defs>
  <sodipodi:namedview
     pagecolor="#ffffff"
     bordercolor="#666666"
     borderopacity="1"
     objecttolerance="10"
     gridtolerance="10"
     guidetolerance="10"
     inkscape:pageopacity="0"
     inkscape:pageshadow="2"
     inkscape:window-width="1920"
     inkscape:window-height="1018"
     id="namedview2878"
     showgrid="false"
     inkscape:zoom="1"
     inkscape:cx="477.72583"
     inkscape:cy="429.02372"
     inkscape:window-x="-8"
     inkscape:window-y="-8"
     inkscape:window-maximized="1"
     inkscape:current-layer="svg2876" />
  <path
     style="fill:none;stroke:#000000;stroke-width:2.04999995px;stroke-linecap:butt;stroke-linejoin:miter;stroke-opacity:1"
     d="m 55.006393,662.62263 c 3.810294,-2.92984 7.716938,-6.2092 13.143391,-10.53503 4.497126,-3.585 10.334091,-8.78183 15.442916,-12.13932 7.909433,-6.66375 6.021424,-3.80318 15.51178,-10.05279 12.05309,-7.17844 22.0392,-14.0672 35.63695,-21.71153 10.49858,-5.90617 16.8772,-7.77542 32.01305,-16.21347 9.17278,-4.40933 23.31188,-9.79834 40.96049,-14.81718 15.98109,-4.82649 20.72593,-7.36331 39.19641,-10.61045 27.64009,-5.63967 42.46198,-10.68273 64.31658,-12.79759 6.00609,-2.13373 10.24828,-5.23939 9.04679,-9.55895 -1.11917,-4.02364 0.12587,-16.37607 -4.40852,-26.26454 -4.83712,-14.42552 -13.44909,-38.17469 -15.34925,-57.12546 -3.23576,-20.51702 -5.08382,-45.73495 -5.6375,-63.57583 -0.75244,-18.34904 -1.26943,-36.31165 0,-53.8125 0.95897,-20.24662 3.13043,-43.51039 7.175,-60.9875 2.36235,-15.92705 5.86603,-28.11425 10.25,-43.5625 7.37661,-16.29453 7.9943,-20.06044 2.5625,-25.625 -9.86838,-5.44841 -20.17163,-7.93362 -30.75,-10.25 -16.57337,-2.07327 -11.77119,-1.32951 -30.2375,-7.175 -25.68152,-9.01059 -36.86852,-11.52026 -49.7125,-16.4 -30.64101,-8.57847 -50.03245,-19.89472 -68.1625,-27.675 -16.63569,-9.02416 4.07107,2.92902 -24.6,-13.325 -9.80481,-4.797 -20.974128,-12.34822 -31.775004,-19.9875 C 58.184816,103.52025 53.123899,96.770234 47.069265,91.431194 31.728623,85.175291 58.533008,75.399948 73.40664,66.491878 90.376622,60.789844 95.565254,54.431359 112.42948,49.745489 c 12.3436,-4.577342 16.36176,-5.635491 29.2125,-9.225 18.0131,-4.834597 31.05961,-8.47552 45.6125,-10.7625 29.27096,-6.775516 46.78196,-10.228618 72.2625,-13.325 19.79127,-1.556073 29.17076,-3.687253 46.52526,-4.1 20.76148,-2.318529 35.05967,-1.574297 49.50426,-2.5625 12.69108,1.004582 20.15728,-1.559291 45.30824,1.025 18.75654,-0.158875 32.95098,1.552998 51.6665,3.5875 26.45558,2.330686 47.25082,6.540382 74.00824,10.7625 24.51834,4.832588 44.99848,5.476739 68.1625,13.8375 21.19835,5.674421 37.98574,11.320961 57.03506,19.997299 13.9043,4.970635 19.19628,8.478288 35.21494,16.902701 17.18388,7.770628 17.8465,10.461253 26.30996,14.220153 8.46347,3.758901 11.91526,4.998597 27.50254,14.992348 12.61557,9.88313 16.12195,11.14265 37.71448,27.81954 11.03929,8.58553 6.29012,6.36618 22.76052,18.30546 9.52098,8.43321 17.45653,13.58611 28.90619,25.37689 10.57254,12.28126 12.81955,15.54248 22.34381,29.97311 5.32668,11.45294 10.08817,17.45343 24.6,16.4 16.32882,1.73828 43.54827,4.54721 60.475,7.175 10.59407,5.22965 51.3764,5.9444 16.4,17.425 -15.80101,5.80066 -32.32041,10.87966 -44.075,12.8125 -14.00677,4.03774 -27.34807,8.641 -39.4625,10.7625 -6.81125,1.08453 -37.35961,7.3457 -16.51224,7.175 3.86585,-0.42958 10.58581,1.58537 20.61224,4.1 9.13535,-6.43417 3.00253,15.76112 6.6625,32.68776 1.17748,12.64746 -3.34292,9.69527 -18.85027,10.36224 -11.70591,0.43936 -23.59423,0.89831 -14.80155,0.95229 14.55108,7.69319 34.10731,-1.6046 32.62682,15.75197 -1.21194,9.42039 -0.21581,22.74602 0,27.06648 -0.50988,9.15973 -36.5105,10.0312 -34.64176,10.04176 5.67075,3.99914 37.67141,-4.31949 33.61676,16.4 0.73523,7.95972 4.4045,30.722 -0.0545,35.41547 -0.27903,1.9353 -48.59796,10.66189 -29.67054,9.68453 13.00963,7.09177 34.27326,-7.15382 31.775,19.475 5.66686,16.35631 2.78844,17.73875 -2.5625,29.06925 -2.04788,4.56299 -28.33821,1.92857 -32.2875,5.26825 7.40731,1.82893 38.88238,6.57138 52.275,9.7375 23.68185,3.72446 58.55774,6.3756 68.1625,13.8375 -2.33861,7.57067 -44.53815,15.25575 -60.9875,20.5 -16.45057,4.49385 -36.94548,8.22029 -44.075,14.8625 -7.69463,15.12057 -20.74245,30.68946 -26.04957,37.07587 -8.96088,8.67283 -21.00155,23.41338 -18.48641,21.07468 -11.96776,12.04985 -17.23328,17.86396 -32.57263,27.66431 -14.06149,10.2516 -27.91516,17.9013 -37.66121,24.42414 -16.26495,10.27214 -18.93769,10.51635 -29.54913,15.85109 -11.85146,5.78413 -28.16905,14.58985 -39.943,18.86389 -29.94615,12.40084 -31.56385,14.7582 -49.43296,21.86569 -14.54207,5.88584 -23.86426,8.41064 -41.54954,13.00038 -13.03989,3.69306 -27.13063,6.83079 -42.05616,9.4675 -19.56863,3.6924 -23.56127,5.13424 -40.83008,7.64933 -19.87639,2.91655 -39.69046,4.75147 -58.07537,4.63203 -27.20389,1.03257 -54.4013,4.54367 -79.81407,4.45443 -22.57083,0.0859 -45.66746,-2.13098 -64.39894,-2.76857 -17.77445,-1.57231 -43.44395,-5.70338 -60.56973,-7.30741 -29.79103,-1.22274 -36.57879,-8.84163 -64.98314,-13.65099 -30.44594,-6.89343 -45.97035,-15.70587 -61.99073,-20.81439 -16.93638,-6.30418 -14.04328,-6.18644 -34.168721,-14.4009 -16.853521,-10.78697 -19.91823,-11.69965 -33.27478,-21.7957 -5.612387,-3.64439 -4.785212,-6.08221 0.820492,-9.73549 l 7.887662,-6.46025 z"
     id="path2907"
     sodipodi:nodetypes="cscccccccscccccccccccccccccccccccccccscccccccccccccccccccccccccccccccccccccccccccccccc"
     inkscape:connector-curvature="0" />
  <path
     style="fill:none;stroke:#000000;stroke-width:2.04999995px;stroke-linecap:butt;stroke-linejoin:miter;stroke-opacity:1"
     d="m 585.46698,309.07049 c -15.32347,6.4166 -27.16298,7.52063 -43.07659,6.24832 -20.85055,0.28575 -39.14463,-5.97184 -58.63174,-13.27699 -8.89309,-5.23117 -27.8289,-14.53325 -35.4146,-21.29118 -13.48627,-12.22341 -21.31481,-17.07379 -29.97979,-33.98521 -10.14926,-13.94428 -10.76748,-25.63744 -14.00939,-42.2128 -1.77805,-17.98473 8.55639,-39.5511 24.4722,-46.22881 15.57313,-9.94219 27.74197,-14.55071 44.99295,-15.39861 12.9109,-2.18758 28.12087,-0.26349 41.05976,0.067 8.78058,1.38389 19.03406,0.23272 25.48199,4.10992 11.83852,2.47357 16.76601,5.01797 28.88284,10.99901 10.63157,6.01158 25.79427,16.18649 33.00242,26.25242 7.24666,10.09668 11.52774,13.48646 15.88467,29.76578 7.53414,14.65186 3.79338,31.59548 4.88576,47.32283 -2.3377,11.49587 -6.51795,17.05211 -12.5262,27.03934 -3.69223,5.64211 -18.88638,17.68857 -25.02428,20.58895 z"
     id="path2909"
     sodipodi:nodetypes="cccccccccccccccc"
     inkscape:connector-curvature="0" />
  <path
     style="fill:none;stroke:#000000;stroke-width:2.04999995px;stroke-linecap:butt;stroke-linejoin:miter;stroke-opacity:1"
     d="m 772.52948,391.07049 c -8.18565,4.1139 -15.97465,9.02603 -24.61446,12.17399 -11.2602,4.84287 -22.59307,9.52173 -34.04746,13.88278 -7.07316,1.95324 -13.38964,6.24578 -20.79502,7.0183 -4.84214,1.63358 -11.52737,4.12636 -15.38176,-0.68683 -2.70912,-5.38644 -2.89298,-10.49797 -3.73559,-17.31596 -0.32044,-7.17271 -0.30051,-14.07159 -0.88575,-21.51375 -1.34025,-5.16405 -0.13878,-13.61973 0.0676,-18.87328 -1.01983,-7.51069 -0.82672,-8.37938 0.5331,-15.39169 0.93044,-5.79484 1.90646,-8.5183 8.33446,-9.58461 5.79706,0.96087 8.58809,1.5564 14.58737,2.76137 5.13638,2.5821 4.98206,1.02859 13.6562,3.74389 7.7463,2.04564 11.76731,3.04733 18.01362,5.09874 6.39315,0.0736 4.07903,1.38931 12.73771,2.54344 5.30942,0.78068 8.59688,2.13585 16.37975,4.37902 6.4992,1.64228 8.49887,2.50873 14.30822,5.60647 4.90444,2.78861 7.1891,7.09041 6.07698,8.40288 3.40177,3.92977 0.41808,8.67724 -1.53873,12.50316 -1.09646,1.83206 -2.25418,3.671 -3.69629,5.25208 z"
     id="path2911"
     sodipodi:nodetypes="ccccccccccccccccccc"
     inkscape:connector-curvature="0" />
  <path
     style="fill:none;stroke:#000000;stroke-width:2.04999995px;stroke-linecap:butt;stroke-linejoin:miter;stroke-opacity:1"
     d="m 583.49777,468.0313 c -15.32347,-6.4166 -27.16297,-7.52063 -43.07659,-6.24832 -20.85055,-0.28575 -39.14463,5.97184 -58.63174,13.27699 -8.89309,5.23117 -27.8289,14.53325 -35.41459,21.29118 -13.48628,12.22341 -21.31482,17.07379 -29.97978,33.98521 -10.14926,13.94428 -10.76748,25.63744 -14.00939,42.2128 -1.77805,17.98473 8.55639,39.5511 24.47218,46.22881 15.57313,9.94219 27.74197,14.55072 44.99295,15.39862 12.9109,2.18757 28.12088,0.26348 41.05976,-0.067 8.78058,-1.38389 12.7468,-1.37586 25.48199,-4.10992 11.26696,-2.47357 16.76601,-5.01797 28.88284,-10.99901 10.63157,-6.01158 25.79427,-16.18649 33.00242,-26.25242 7.24668,-10.09668 11.52776,-13.48646 15.88469,-29.76578 7.53414,-14.65186 3.79338,-31.59548 4.88576,-47.32283 -2.33769,-11.49587 -6.51795,-17.05211 -12.52619,-27.03934 -3.69226,-5.64211 -18.88641,-17.68857 -25.02431,-20.58895 z"
     id="path2909-9"
     sodipodi:nodetypes="cccccccccccccccc"
     inkscape:connector-curvature="0" />
</svg>
