<?xml version="1.0" encoding="UTF-8" standalone="no"?>
<!-- Created with Inkscape (http://www.inkscape.org/) -->

<svg
   xmlns:dc="http://purl.org/dc/elements/1.1/"
   xmlns:cc="http://creativecommons.org/ns#"
   xmlns:rdf="http://www.w3.org/1999/02/22-rdf-syntax-ns#"
   xmlns:svg="http://www.w3.org/2000/svg"
   xmlns="http://www.w3.org/2000/svg"
   xmlns:sodipodi="http://sodipodi.sourceforge.net/DTD/sodipodi-0.dtd"
   xmlns:inkscape="http://www.inkscape.org/namespaces/inkscape"
   id="svg2876"
   version="1.1"
   inkscape:version="0.47 r22583"
   width="1024"
   height="768"
   sodipodi:docname="totenkitten.svg">
  <metadata
     id="metadata2882">
    <rdf:RDF>
      <cc:Work
         rdf:about="">
        <dc:format>image/svg+xml</dc:format>
        <dc:type
           rdf:resource="http://purl.org/dc/dcmitype/StillImage" />
        <dc:title></dc:title>
      </cc:Work>
    </rdf:RDF>
  </metadata>
  <defs
     id="defs2880">
    <inkscape:perspective
       sodipodi:type="inkscape:persp3d"
       inkscape:vp_x="0 : 0.5 : 1"
       inkscape:vp_y="0 : 1000 : 0"
       inkscape:vp_z="1 : 0.5 : 1"
       inkscape:persp3d-origin="0.5 : 0.33333333 : 1"
       id="perspective2884" />
    <inkscape:perspective
       id="perspective2940"
       inkscape:persp3d-origin="0.5 : 0.33333333 : 1"
       inkscape:vp_z="1 : 0.5 : 1"
       inkscape:vp_y="0 : 1000 : 0"
       inkscape:vp_x="0 : 0.5 : 1"
       sodipodi:type="inkscape:persp3d" />
  </defs>
  <sodipodi:namedview
     pagecolor="#ffffff"
     bordercolor="#666666"
     borderopacity="1"
     objecttolerance="10"
     gridtolerance="10"
     guidetolerance="10"
     inkscape:pageopacity="0"
     inkscape:pageshadow="2"
     inkscape:window-width="1400"
     inkscape:window-height="977"
     id="namedview2878"
     showgrid="false"
     inkscape:zoom="7.1732155"
     inkscape:cx="206.17201"
     inkscape:cy="362.71585"
     inkscape:window-x="0"
     inkscape:window-y="25"
     inkscape:window-maximized="1"
     inkscape:current-layer="svg2876" />
  <path
     style="fill:none;stroke:#000000;stroke-width:1px;stroke-linecap:butt;stroke-linejoin:miter;stroke-opacity:1"
     d="m 211.53554,161.98874 c 1.42919,1.85868 3.02888,3.76436 5.13904,6.41141 1.74878,2.19372 4.28382,5.04102 5.92162,7.53313 3.25061,3.85826 1.85521,2.93728 4.9038,7.56672 3.50168,5.87956 6.86205,10.75083 10.59099,17.38388 2.88106,5.12126 3.79289,8.23278 7.90901,15.61612 2.15089,4.47453 4.77968,11.37165 7.22789,19.98073 2.35439,7.79565 3.59186,10.11021 5.17583,19.1202 2.75106,13.48297 5.21109,20.71316 6.24273,31.37394 1.04084,2.9298 2.5558,4.99916 4.6629,4.41307 1.96275,-0.54594 7.98833,0.0614 12.81197,-2.1505 7.03684,-2.35957 18.6218,-6.56053 27.86608,-7.48744 10.0083,-1.57842 22.30973,-2.47991 31.0126,-2.75 8.95075,-0.36704 17.713,-0.61923 26.25,0 9.8764,0.46779 21.22458,1.52704 29.75,3.5 7.76929,1.15237 13.71427,2.86148 21.25,5 7.94855,3.59835 9.78558,3.89966 12.5,1.25 2.65776,-4.81384 3.87006,-9.83982 5,-15 1.01135,-8.08457 0.64854,-5.74204 3.5,-14.75 4.39541,-12.52757 5.61964,-17.98464 8,-24.25 4.18462,-14.94683 9.70474,-24.40607 13.5,-33.25 4.40203,-8.11497 -1.42879,1.98589 6.5,-12 2.34,-4.78283 6.02352,-10.23128 9.75,-15.5 7.26841,-10.46081 10.5611,-12.92955 13.16551,-15.88303 3.05166,-7.48324 7.82012,5.59207 12.16552,12.8475 2.78148,8.27804 5.88318,10.80908 8.16897,19.03553 2.23285,6.02127 2.74902,7.98135 4.5,14.25 2.35834,8.78688 4.1344,15.15103 5.25,22.25 3.30513,14.27852 4.98957,22.82047 6.5,35.25 0.75906,9.65428 1.79866,14.22964 2,22.69525 1.13099,10.12755 0.76795,17.10228 1.25,24.14842 -0.49004,6.19077 0.76063,9.83282 -0.5,22.10158 0.0775,9.14953 -0.75756,16.07365 -1.75,25.20317 -1.13692,12.90516 -3.19043,23.04918 -5.25,36.10158 -2.35736,11.96017 -2.67158,21.95048 -6.75,33.25 -2.76801,10.34066 -5.52242,18.52963 -9.75478,27.82198 -2.4247,6.78259 -4.13575,9.36404 -8.24522,17.17802 -3.79055,8.38238 -5.10305,8.70561 -6.93666,12.83413 -1.83361,4.12852 -2.43834,5.81232 -7.31334,13.41587 -4.82104,6.15394 -5.43544,7.86437 -13.57051,18.39731 -4.18806,5.38502 -3.10545,3.06835 -8.92949,11.10269 -4.11376,4.64438 -6.62737,8.51538 -12.37897,14.10058 -5.99086,5.15734 -7.5817,6.25344 -14.62103,10.89942 -5.5868,2.59838 -8.51387,4.92106 -8,12 -0.84794,7.96528 -2.21815,21.24306 -3.5,29.5 -2.55105,5.16784 -2.89971,25.06166 -8.5,8 -2.82959,-7.70781 -5.30715,-15.76605 -6.25,-21.5 -1.96963,-6.83257 -4.21512,-13.34052 -5.25,-19.25 -0.52904,-3.32256 -3.58327,-18.2242 -3.5,-8.05475 0.20955,1.88578 -0.77335,5.16381 -2,10.05475 3.13862,4.45627 -7.68835,1.46465 -15.94525,3.25 -6.16949,0.57438 -4.7294,-1.63069 -5.05475,-9.19525 -0.21432,-5.7102 -0.4382,-11.50938 -0.46453,-7.22027 -3.75278,7.09809 0.78273,16.63771 -7.68389,15.91552 -4.59531,-0.59119 -11.09562,-0.10527 -13.20316,0 -4.46816,-0.24872 -4.89327,-17.81 -4.89842,-16.89842 -1.9508,2.76622 2.10707,18.3763 -8,16.39842 -3.88279,0.35865 -14.98634,2.14854 -17.27584,-0.0266 -0.94405,-0.13611 -5.20092,-23.70632 -4.72416,-14.47343 -3.4594,6.34616 3.48967,16.71866 -9.5,15.5 -7.97869,2.76432 -8.65305,1.36021 -14.18012,-1.25 -2.22585,-0.99897 -0.94077,-13.82352 -2.56988,-15.75 -0.89216,3.61332 -3.20555,18.96701 -4.75,25.5 -1.81681,11.55212 -3.11005,28.56475 -6.75,33.25 -3.69301,-1.14079 -7.44183,-21.72593 -10,-29.75 -2.19212,-8.02467 -4.0099,-18.02219 -7.25,-21.5 -7.37589,-3.75348 -14.97047,-10.11827 -18.08579,-12.70711 -4.23065,-4.37116 -11.42116,-10.24466 -10.28033,-9.01776 -5.87798,-5.83793 -8.71413,-8.40648 -13.49479,-15.88909 -5.00078,-6.85926 -8.73234,-13.61715 -11.91421,-18.37132 -5.0108,-7.93412 -5.12993,-9.2379 -7.73224,-14.41421 -2.82153,-5.7812 -7.117,-13.741 -9.2019,-19.48439 -6.04919,-14.60788 -7.19912,-15.397 -10.66619,-24.11364 -2.87114,-7.09369 -4.10275,-11.6411 -6.34165,-20.26807 -1.80149,-6.36092 -3.33209,-13.23445 -4.61829,-20.5152 -1.80117,-9.54567 -2.50451,-11.4933 -3.73138,-19.91711 -1.42271,-9.6958 -2.31779,-19.3612 -2.25953,-28.32945 -0.50369,-13.27019 -2.21642,-26.53722 -2.17289,-38.93369 -0.0419,-11.01016 1.0395,-22.27681 1.35052,-31.41412 0.76698,-8.67046 2.78214,-21.19217 3.56459,-29.54621 0.59646,-14.53221 4.31299,-17.84331 6.65902,-31.69909 3.36265,-14.85168 7.6614,-22.42456 10.15336,-30.23938 3.07521,-8.26165 3.01778,-6.85038 7.02483,-16.66767 5.26194,-8.22123 5.70715,-9.71621 10.63205,-16.2316 1.77775,-2.73775 2.96693,-2.33425 4.74902,0.40024 l 3.15134,3.84764 z"
     id="path2907"
     sodipodi:nodetypes="cscccccccscccccccccccccccccccccccccccscccccccccccccccccccccccccccccccccccccccccccccccc" />
  <path
     style="fill:none;stroke:#000000;stroke-width:1px;stroke-linecap:butt;stroke-linejoin:miter;stroke-opacity:1"
     d="m 384,420.75 c -3.13005,-7.47486 -3.6686,-13.25023 -3.04796,-21.01297 -0.13939,-10.171 2.91309,-19.09494 6.47658,-28.60085 2.55179,-4.33809 7.08939,-13.57507 10.38594,-17.27541 5.96264,-6.57867 8.32868,-10.39747 16.57815,-14.62429 6.80209,-4.95086 12.50607,-5.25243 20.59161,-6.83385 8.77304,-0.86734 19.29322,4.17385 22.55064,11.93766 4.84985,7.59665 7.09791,13.53267 7.51152,21.94778 1.06711,6.298 0.12853,13.7175 -0.0327,20.02915 -0.67507,4.28321 -0.11352,9.28491 -2.00484,12.43024 -1.20662,5.77489 -2.44779,8.17854 -5.36537,14.08919 -2.93248,5.18613 -7.89585,12.58257 -12.80606,16.09874 -4.92521,3.53496 -6.57876,5.62329 -14.51989,7.74862 -7.14725,3.67519 -15.41243,1.85043 -23.08431,2.3833 -5.60774,-1.14034 -8.3181,-3.17949 -13.18992,-6.11034 C 391.29114,431.15588 385.41482,423.7441 384,420.75 z"
     id="path2909"
     sodipodi:nodetypes="cccccccccccccccc" />
  <path
     style="fill:none;stroke:#000000;stroke-width:1px;stroke-linecap:butt;stroke-linejoin:miter;stroke-opacity:1"
     d="m 344,512 c -2.00678,-3.993 -4.40294,-7.79251 -5.93853,-12.00705 -2.36238,-5.49278 -4.64475,-11.02101 -6.77209,-16.60852 -0.9528,-3.45032 -3.04672,-6.53153 -3.42356,-10.14391 -0.79687,-2.36202 -2.01286,-5.62311 0.33504,-7.5033 2.62753,-1.32152 5.12096,-1.41121 8.44681,-1.82224 3.49888,-0.15631 6.86419,-0.14659 10.49451,-0.43207 2.51905,-0.65378 6.64377,-0.0677 9.20648,0.033 3.66375,-0.49748 4.0875,-0.40328 7.50814,0.26005 2.82675,0.45387 4.15527,0.92998 4.67542,4.06559 -0.46872,2.82783 -0.75922,4.18931 -1.34701,7.11579 -1.25956,2.50555 -0.50175,2.43027 -1.82629,6.66156 -0.99787,3.77868 -1.4865,5.74015 -2.48719,8.78713 -0.0359,3.11861 -0.67771,1.98977 -1.2407,6.21352 -0.38082,2.58996 -1.04188,4.1936 -2.13611,7.99012 -0.80111,3.17034 -1.22377,4.14579 -2.73486,6.97962 -1.3603,2.39241 -3.45874,3.50688 -4.09897,2.96438 -1.91696,1.6594 -4.2328,0.20394 -6.0991,-0.7506 C 345.6683,513.26821 344.77126,512.70347 344,512 z"
     id="path2911"
     sodipodi:nodetypes="ccccccccccccccccccc" />
  <path
     style="fill:none;stroke:#000000;stroke-width:1px;stroke-linecap:butt;stroke-linejoin:miter;stroke-opacity:1"
     d="m 306.45814,419.78941 c 3.13005,-7.47486 3.6686,-13.25023 3.04796,-21.01297 0.13939,-10.171 -2.91309,-19.09494 -6.47658,-28.60085 -2.55179,-4.33809 -7.08939,-13.57507 -10.38594,-17.27541 -5.96264,-6.57867 -8.32868,-10.39747 -16.57815,-14.62428 -6.80209,-4.95086 -12.50607,-5.25243 -20.59161,-6.83385 -8.77304,-0.86734 -19.29322,4.17385 -22.55064,11.93765 -4.84985,7.59665 -7.09791,13.53267 -7.51152,21.94778 -1.06711,6.298 -0.12853,13.7175 0.0327,20.02915 0.67507,4.28321 0.67115,6.21795 2.00484,12.43024 1.20662,5.49608 2.44779,8.17854 5.36537,14.08919 2.93248,5.18613 7.89585,12.58257 12.80606,16.09874 4.92521,3.53497 6.57876,5.6233 14.51989,7.74863 7.14725,3.67519 15.41243,1.85043 23.08431,2.3833 5.60774,-1.14034 8.3181,-3.17949 13.18992,-6.11034 2.75225,-1.8011 8.62857,-9.21288 10.04339,-12.20698 z"
     id="path2909-9"
     sodipodi:nodetypes="cccccccccccccccc" />
</svg>
