<?xml version="1.0" encoding="UTF-8" standalone="no"?>
<!-- Generator: Adobe Illustrator 17.1.0, SVG Export Plug-In . SVG Version: 6.00 Build 0)  -->

<svg
   xmlns:dc="http://purl.org/dc/elements/1.1/"
   xmlns:cc="http://creativecommons.org/ns#"
   xmlns:rdf="http://www.w3.org/1999/02/22-rdf-syntax-ns#"
   xmlns:svg="http://www.w3.org/2000/svg"
   xmlns="http://www.w3.org/2000/svg"
   xmlns:sodipodi="http://sodipodi.sourceforge.net/DTD/sodipodi-0.dtd"
   xmlns:inkscape="http://www.inkscape.org/namespaces/inkscape"
   version="1.0"
   id="svg2876"
   inkscape:version="0.91 r13725"
   sodipodi:docname="safe_space.svg"
   x="0px"
   y="0px"
   viewBox="0 0 1996.7614 3283.8919"
   enable-background="new 0 0 1728 1728"
   xml:space="preserve"
   width="1996.7614"
   height="3283.8918"><metadata
     id="metadata10"><rdf:RDF><cc:Work
         rdf:about=""><dc:format>image/svg+xml</dc:format><dc:type
           rdf:resource="http://purl.org/dc/dcmitype/StillImage" /><dc:title></dc:title></cc:Work></rdf:RDF></metadata><defs
     id="defs3" /><sodipodi:namedview
     inkscape:current-layer="svg2876"
     inkscape:window-maximized="0"
     inkscape:window-y="0"
     inkscape:window-x="0"
     inkscape:window-height="898"
     inkscape:window-width="1528"
     inkscape:pageshadow="2"
     inkscape:pageopacity="1"
     id="namedview2878"
     objecttolerance="10"
     inkscape:cy="1627.157"
     showgrid="false"
     inkscape:cx="1136.195"
     pagecolor="#000000"
     guidetolerance="10"
     bordercolor="#666666"
     inkscape:zoom="0.21209969"
     borderopacity="1"
     gridtolerance="10"
     fit-margin-top="50"
     fit-margin-left="50"
     fit-margin-right="50"
     fit-margin-bottom="50"
     inkscape:document-units="px"
     units="px"
     inkscape:showpageshadow="false" /><path
     style="fill:#ffffff"
     d="m 1483.1001,1431.0472 c -1.2,-18.8 -0.4,-37.2 -3.2,-64 -0.4,-22.4 -3.2,-34.4 -5.2,-60 -4,-32.8 -8.4,-55.2 -17.2,-93.2 -2.8,-18.4 -7.2,-35.6 -13.6,-58.8 -4.8,-16.4 -6,-21.6 -12,-37.6 -6,-21.6 -14,-28.4 -21.6,-50.4 -11.6,-19.2 -24,-54 -32.4,-34 -6.8,8 -15.6,14 -34.8,42 -10,14 -20,28.4 -26,41.2 -20.8,36.8 -5.6,10 -17.2,31.6 -10,23.2 -24.4,48.4 -35.6,88 -6.4,16.4 -9.6001,30.8 -21.2001,64 -7.6,24 -6.4,17.6 -9.2,39.2 -2.8,13.6 -6,26.8 -13.2,39.6 -7.2,7.2 -12.4,6.4 -33.2,-3.2 -19.6,-5.6 -35.2,-10 -56,-13.2 -22.8,-5.2 -52.4,-8 -78.8,-9.2 -22.4,-1.6 -45.2,-1.2 -69.2,0 -22.8,0.8 -55.6,3.2 -82,7.6 -24.8,2.4 -55.6,13.6 -74,20 -12.8,6.4 -28.8,4.8 -34,6 -5.6,1.6 -9.6,-4 -12.4,-11.6 -2.8,-28.4 -8.8,-47.6 -16.4,-83.2 -4,-23.6 -7.2,-29.6 -13.6,-50.4 -6.4,-22.8 -13.2,-40.8 -19.2,-52.8 -10.8,-19.6 -13.2,-27.6 -20.8,-41.2 -9.6,-17.2 -18.8,-30.4 -28,-46 -7.6,-12.4 -4,-9.6 -12.8,-20 -4.4,-6.8 -11.2,-14 -15.6,-20 -5.6,-6.8 -10,-11.6 -13.6,-16.8 l -8.8,-12.4 c -4.4,-7.2 -7.6,-8.4 -12.4,-1.2 -12.8,17.2 -14,21.2 -28,42.8 -10.4,26 -10,22.4 -18.4,44.4 -6.8,20.8 -18,40.4 -27.2,80 -6.4,36.8 -16,45.6 -17.6,84 -2,22 -7.6,54.8 -9.6,78 -0.8,24 -3.6,54 -3.6,83.2 0,33.2 4.8,68 6,103.2 0,23.6 2.4,49.2 6,74.8 2.8,22.4 4.8,27.6 9.6,52.8 3.2,19.6 7.2,37.6 12,54.4 6,22.8 9.2,34.8 16.8,53.6 9.2,23.2 12.4,25.2 28.4,63.9999 5.6,15.2 16.8,36.4 24.4,51.6 6.8,13.6 7.2,17.2 20.4,38 8.4,12.8 18.4,30.4 31.6,48.7999 12.4,19.6 20,26.8 35.6,42 -2.8,-3.2 16,12.4 27.2,24 8.4,6.8 28.4,23.6 48,33.6 8.8,9.2 13.2,35.6 19.2,56.8 6.8,21.2 16.8,76 26.4,78.8 9.6,-12.4 13.2,-57.2 18,-88 4.4,-17.2 10.4,-58 12.8,-67.6 4.4,5.6 0.8,39.2 6.8,42 14.4,6.8 16.4,10.8 37.6,3.2 34.4,3.2 16,-24.4 25.2,-41.2 -1.2,-24.4 10,38 12.4,38.4 6.4,5.6 35.6,1.2 46,0 26.8,5.2 16,-36 21.2,-43.6 0,-2.4 0.8,44.4 12.8,44.8 5.6,-0.4 22.8,-1.6 34.8,0 22.4,2 10.4,-23.2 20.4,-42 0,-11.2 0.8,4 1.2,19.2 1.2,20 -2.8,26 13.6,24.4 21.6,-4.4 50.4,3.6 42,-8.4 3.2,-13.2 5.6,-21.6 5.2,-26.8 -0.4,-26.4 8,12.8 9.2,21.6 2.4,15.6 8.4,32.8 13.6,50.8 2.4,14.8 8.8,36.4 16.4,56.8 14.8,45.2 15.6,-7.6 22.4,-21.2 3.2,-22 7.2,-56.8 9.2,-78 -1.2,-18.8 6.4,-24.8 21.2,-31.6 18.8,-12 22.8,-15.2 38.8001,-28.8 15.2,-14.8 22,-25.2 32.8,-37.2 15.2,-20.8 12.4,-14.8 23.6,-29.2 21.6,-27.9999 23.2,-32.3999 36,-48.7999 12.8,-20.4 14.4,-24.8 19.2,-35.6 4.8,-10.8 8.4,-11.6 18.4,-34 10.8,-20.8 15.2,-27.6 21.6,-45.5999 11.6,-24.8 18.4,-46.4 26,-73.6 10.8,-29.6 11.6,-56.4 18,-88 5.2,-34.8 10.8,-61.6 13.6,-95.6 2.8,-24 5.2,-42.8 4.8,-66.8 3.2,-32.4 0,-42 1.2,-58.4 z m -590.4001,296.4 c -4,8 -19.6,27.6 -27.2,32 -12.8,7.6 -20,13.2 -34.8,16 -20.4,-1.2 -42.4,3.2 -61.2,-6.4 -20.8,-5.6 -25.2,-10.8 -38.4,-20.4 -13.2,-9.6 -26.4,-29.2 -34,-42.8 -8,-15.6 -11.2,-22.8 -14.4,-37.2 -3.2,-16.4 -3.2,-21.6 -5.2,-32.8 -0.4,-16.4 -2.8,-36 0,-52.8 1.2,-22.4 7.2,-38 20,-58 8.8,-20.4 36.8,-34 60,-31.6 21.2,4 36.4,4.8 54.4,18 22,11.2 28,21.2 44,38.8 8.8,10 20.8,34.8 27.6,46 9.6,25.2 17.6,48.4 17.2,75.6 1.6,20.4 0.4,35.6 -8,55.6 z m 160.8,145.9999 c -3.6,6.8 -1.2,6.4 -4.8,17.6 -2.8,10 -4,15.2 -6.8,23.2 0,8.4 -2,5.2 -3.2,16.4 -1.2,6.8 -2.8,11.2 -5.6,21.2 -2,8.4 -3.2,10.8 -7.2,18.4 -3.6,6.3999 -9.2,9.1999 -10.8,7.9999 -5.2,4.4 -11.2,0.4 -16,-2 -2.8,-1.2 -5.2,-2.8 -7.2,-4.8 -5.2,-10.3999 -11.6,-20.7999 -15.6,-31.5999 -6.4,-14.4 -12,-29.2 -18,-44 -2.8,-9.2 -8,-17.2 -9.2,-26.8 -2,-6.4 -5.2,-14.8 0.8,-20 6.8,-3.6 13.6,-3.6 22.4,-4.8 9.2,-0.4 18.4,-0.4 28,-1.2 6.8,-2 17.6,-0.4 24.4,0 9.6,-1.2 10.8,-1.2 20,0.8 7.6,1.2 11.2,2.4 12.4,10.8 -1.2,7.6 -2,11.2 -3.6,18.8 z m 259.6001,-234.7999 c -2,11.2 -0.4,24.8 -5.2,32.8 -3.2,15.2 -6.4,21.6 -14.4,37.2 -7.6,13.6 -20.8,33.2 -34,42.8 -12.8001,9.2 -17.6001,14.8 -38.4001,20.4 -18.8,9.6 -40.8,5.2 -61.2,6.4 -14.8,-2.8 -22,-8.4 -34.8,-16 -8,-4.8 -23.6,-24.4 -27.2,-32 -8.4,-20 -9.6,-35.2 -8,-55.6 -0.4,-27.2 7.6,-50.4 17.2,-75.6 6.8,-11.2 18.8,-36 27.6,-46 16,-17.6 22,-27.6 44,-38.8 18,-13.2 33.2,-14 54.4,-18 23.2001,-2.4 51.2001,11.2 60.0001,31.6 12.8,20 18.8,35.6 20,58 2.8,16.8 0.4,36.4 0,52.8 z"
     id="path8"
     inkscape:connector-curvature="0" /><g
     id="g4177"
     transform="translate(40.66421,1018.6929)" /><text
     xml:space="preserve"
     style="font-style:normal;font-variant:normal;font-weight:normal;font-stretch:normal;font-size:360px;line-height:125%;font-family:'Roboto Condensed';-inkscape-font-specification:'Roboto Condensed, ';text-align:center;letter-spacing:0px;word-spacing:0px;writing-mode:lr-tb;text-anchor:middle;fill:#ffffff;fill-opacity:1;stroke:none;stroke-width:1px;stroke-linecap:butt;stroke-linejoin:miter;stroke-opacity:1"
     x="996.93359"
     y="417.7005"
     id="text18628"
     sodipodi:linespacing="125%"><tspan
       sodipodi:role="line"
       id="tspan18630"
       x="996.93359"
       y="417.7005">FEAR NOT</tspan><tspan
       sodipodi:role="line"
       x="996.93359"
       y="867.7005"
       id="tspan18632">CITIZEN</tspan><tspan
       sodipodi:role="line"
       x="996.93359"
       y="1317.7004"
       id="tspan18634" /><tspan
       sodipodi:role="line"
       x="996.93359"
       y="1767.7004"
       id="tspan18636" /><tspan
       sodipodi:role="line"
       x="996.93359"
       y="2217.7004"
       id="tspan18642" /><tspan
       sodipodi:role="line"
       x="996.93359"
       y="2667.7004"
       id="tspan18638">THIS IS A</tspan><tspan
       sodipodi:role="line"
       x="996.93359"
       y="3117.7004"
       id="tspan18640">SAFE SPACE</tspan></text>
<rect
     style="opacity:0.856;fill:none;fill-opacity:1;fill-rule:evenodd;stroke:#ff0000;stroke-width:25;stroke-linejoin:miter;stroke-miterlimit:4;stroke-dasharray:none;stroke-opacity:1"
     id="rect18644"
     width="1871.7614"
     height="3158.8918"
     x="62.5"
     y="62.5" /></svg>